<svg xmlns="http://www.w3.org/2000/svg" viewBox="0 0 64 64" role="img" aria-label="Huya">
  <defs>
    <linearGradient id="fur" x1="13" y1="7" x2="50" y2="57" gradientUnits="userSpaceOnUse">
      <stop offset="0" stop-color="#ffd94b"/>
      <stop offset=".48" stop-color="#ffb92e"/>
      <stop offset="1" stop-color="#f28317"/>
    </linearGradient>
    <linearGradient id="face" x1="20" y1="15" x2="42" y2="44" gradientUnits="userSpaceOnUse">
      <stop offset="0" stop-color="#fffdf2"/>
      <stop offset="1" stop-color="#fff4cf"/>
    </linearGradient>
    <filter id="shadow" x="-15%" y="-12%" width="130%" height="130%">
      <feDropShadow dx="0" dy="2" stdDeviation="2" flood-color="#7a3d02" flood-opacity=".28"/>
    </filter>
  </defs>
  <path fill="url(#fur)" filter="url(#shadow)" d="M16.4 12.6 8.9 7.9c-1.3-.8-3 .1-3.1 1.6L4.2 32.2c-.2 2.6.5 5.1 1.9 7.3L1.8 51c-.5 1.2.7 2.4 1.9 1.9l10.7-4.5c4.5 4.1 10.6 6.6 17.5 6.6 6.8 0 12.8-2.4 17.3-6.4l10.8 4.1c1.2.5 2.4-.8 1.9-2l-4.4-11.1c1.4-2.2 2.1-4.8 1.9-7.5L57.8 9.6c-.1-1.5-1.8-2.4-3.1-1.6l-7.3 4.7C43.3 9.5 38 7.8 31.9 7.8c-6 0-11.4 1.7-15.5 4.8Z"/>
  <path fill="#7d4d0d" opacity=".42" d="M14.2 24.2c-3.2 2.5-5.5 6.4-6.3 11.2 2.6-2.1 5-3.2 7.7-3.5-1.7 2.6-2.4 5.4-2.2 8.2 2.4-2.1 5.3-3.2 8.6-3.4l-7.8-12.5ZM49.8 24.2c3.2 2.5 5.5 6.4 6.3 11.2-2.6-2.1-5-3.2-7.7-3.5 1.7 2.6 2.4 5.4 2.2 8.2-2.4-2.1-5.3-3.2-8.6-3.4l7.8-12.5Z"/>
  <path fill="url(#face)" d="M18.8 28.3c1.7-8.3 6.4-13.2 13.2-13.2 6.9 0 11.7 4.9 13.3 13.2 1.4 7.2-4.1 13.2-13.3 13.2-9.1 0-14.6-6-13.2-13.2Z"/>
  <path fill="#8b5410" d="M30 24.1c-.7 2.4-2.2 5-4.5 7.8-.7.8-.1 2 1 2h11c1.1 0 1.6-1.2 1-2-2.3-2.8-3.8-5.4-4.5-7.8-.6-2.1-3.4-2.1-4 0Z"/>
  <path fill="#fff" d="M28 25.9c-.4 1.3-1.2 2.7-2.5 4.2-.4.5-.1 1.1.6 1.1h6.1c.6 0 .9-.7.6-1.1-1.3-1.5-2.1-2.9-2.5-4.2-.4-1.2-1.9-1.2-2.3 0Z" opacity=".92"/>
  <path fill="#8b5410" d="M22.4 43.4c5 2 12.8 2.1 17.9.1.9-.3 1.6.8.9 1.5-4 3.9-14 3.9-19.4.1-.8-.6-.3-2.1.6-1.7Z" opacity=".68"/>
</svg>
