<svg width="256" height="256" viewBox="0 0 256 256" fill="none" xmlns="http://www.w3.org/2000/svg">
<rect x="10" y="10" width="236" height="236" rx="54" fill="url(#bg)"/>
<path d="M49 66C49 51.64 60.64 40 75 40H181C195.36 40 207 51.64 207 66V156C207 170.36 195.36 182 181 182H114L70 218L82 182H75C60.64 182 49 170.36 49 156V66Z" fill="#FFF5D8"/>
<path d="M60 69C60 58.51 68.51 50 79 50H177C187.49 50 196 58.51 196 69V151C196 161.49 187.49 170 177 170H111L83 193L91 170H79C68.51 170 60 161.49 60 151V69Z" stroke="#FF8B1E" stroke-width="8"/>
<path d="M91 87L70 63L106 73L91 87Z" fill="#5B2A13"/>
<path d="M164 87L186 64L150 73L164 87Z" fill="#5B2A13"/>
<circle cx="128" cy="118" r="43" fill="#FF941D"/>
<ellipse cx="128" cy="139" rx="30" ry="35" fill="#FFD99A"/>
<path d="M111 83L101 104M145 83L156 104M128 78V97" stroke="#6A2F12" stroke-width="7" stroke-linecap="round"/>
<rect x="114" y="105" width="9" height="27" rx="4.5" fill="#552814"/>
<rect x="134" y="105" width="9" height="27" rx="4.5" fill="#552814"/>
<path d="M128 127L119 140H137L128 127Z" fill="#552814"/>
<path d="M117 145C121 151 126 153 128 153C130 153 135 151 139 145" stroke="#552814" stroke-width="4" stroke-linecap="round"/>
<rect x="173" y="126" width="49" height="8" rx="4" fill="#5A2B17"/>
<rect x="173" y="143" width="37" height="8" rx="4" fill="#5A2B17"/>
<defs><linearGradient id="bg" x1="43" y1="22" x2="212" y2="236" gradientUnits="userSpaceOnUse"><stop stop-color="#FFC838"/><stop offset="1" stop-color="#FF6814"/></linearGradient></defs>
</svg>
